<!--?xml version="1.0" standalone="no"?-->

<svg version="1.0" xmlns="http://www.w3.org/2000/svg" width="300.000000pt" height="300.000000pt" viewBox="0 0 300.000000 300.000000" preserveAspectRatio="xMidYMid meet">
<g transform="translate(0.000000,300.000000) scale(0.100000,-0.100000)" fill="#101010" stroke="none">
<path d="M1345 2681 c-16 -4 -40 -13 -53 -20 -28 -15 -168 -61 -186 -61 -7 0
-30 -18 -52 -41 -21 -22 -60 -63 -86 -90 -27 -27 -48 -54 -48 -60 0 -5 -18
-26 -40 -47 -34 -31 -42 -46 -50 -95 -5 -32 -17 -70 -28 -85 -48 -69 -61 -181
-31 -268 7 -22 13 -86 13 -150 l1 -111 57 -61 c31 -34 59 -75 63 -91 4 -17 19
-40 35 -51 18 -13 37 -42 50 -78 12 -31 36 -73 55 -92 18 -19 35 -44 37 -54 1
-11 9 -21 17 -24 11 -4 12 1 6 19 -4 13 -10 53 -14 88 -5 51 -11 67 -31 82
-68 50 -80 62 -80 75 0 19 34 18 50 -1 16 -19 49 -19 56 0 4 8 -3 33 -15 56
-12 22 -18 45 -14 52 3 6 8 63 10 126 1 64 7 138 12 165 7 38 5 61 -7 98 -11
37 -13 54 -4 71 6 12 14 42 18 67 7 49 27 86 58 112 15 12 32 15 67 11 50 -6
133 9 189 35 19 8 71 18 115 20 47 3 90 11 103 20 16 10 37 13 71 9 96 -11
174 -76 206 -172 17 -47 17 -61 7 -100 -7 -25 -12 -54 -12 -65 0 -23 -32 -45
-78 -54 -19 -3 -53 -19 -77 -35 -23 -16 -58 -34 -78 -40 -55 -18 -60 -31 -58
-136 1 -69 6 -105 21 -137 11 -24 20 -60 20 -80 0 -32 -4 -39 -24 -44 -14 -3
-41 -1 -60 6 -34 11 -76 1 -76 -18 1 -24 19 -33 54 -27 49 10 48 -11 -1 -31
-111 -45 -218 -127 -211 -163 5 -27 63 -26 117 2 64 34 153 50 203 37 73 -20
32 -59 -50 -47 -56 7 -87 -4 -87 -33 0 -22 4 -25 35 -22 19 1 59 -3 87 -9 47
-11 55 -10 73 6 11 10 20 28 20 40 0 11 7 30 15 41 15 19 15 19 35 -5 45 -53
4 -136 -85 -172 -16 -7 -48 -25 -70 -41 -31 -21 -57 -30 -106 -34 l-65 -7 -53
47 c-36 32 -60 46 -80 46 -19 0 -44 13 -71 35 -47 39 -70 44 -70 16 0 -28 60
-76 119 -96 28 -9 55 -23 59 -32 10 -17 -1 -92 -14 -102 -5 -3 -17 -16 -27
-28 -15 -17 -16 -25 -7 -42 14 -26 36 -27 75 -1 17 11 37 20 46 20 8 0 40 18
69 40 29 22 62 40 71 40 10 0 29 11 41 25 13 13 38 27 56 31 27 5 32 4 32 -12
0 -11 -15 -35 -33 -55 -71 -79 -96 -108 -173 -204 -125 -153 -113 -148 -173
-73 -28 35 -65 72 -82 82 -28 16 -32 16 -54 2 -14 -9 -51 -61 -83 -116 -31
-55 -63 -100 -69 -100 -16 0 -18 -12 18 126 60 227 72 298 41 234 -14 -28 -25
-37 -57 -43 -181 -38 -298 -78 -474 -165 -150 -75 -254 -222 -286 -406 -8 -49
-15 -97 -15 -107 0 -18 15 -19 371 -19 l372 0 -9 73 c-14 122 -12 130 43 209
45 67 52 73 82 71 42 -2 68 -26 83 -77 6 -23 15 -45 20 -50 9 -11 11 -56 3
-56 -11 0 -115 107 -115 118 0 7 -4 12 -10 12 -16 0 -22 -44 -13 -106 8 -57 9
-58 46 -67 40 -10 50 -34 21 -58 -8 -7 -22 -25 -30 -41 l-15 -28 868 2 868 3
3 104 c2 84 -1 119 -18 175 -37 123 -70 168 -185 256 -38 30 -79 63 -90 73
-45 42 -108 78 -211 121 -60 24 -138 61 -174 80 -36 20 -77 36 -91 36 -39 0
-62 25 -108 114 -23 44 -49 88 -59 99 -11 13 -17 35 -17 71 1 47 6 60 83 172
45 66 82 130 82 141 0 12 25 70 55 130 71 141 85 216 62 330 -10 53 -28 99
-51 139 -20 32 -36 71 -36 85 0 15 -7 32 -16 40 -8 7 -27 35 -41 63 -14 27
-43 73 -64 101 -22 29 -39 56 -40 61 -1 24 -163 134 -196 134 -8 0 -40 11 -73
25 -52 22 -73 25 -167 24 -59 -1 -121 -4 -138 -8z m563 -903 c7 -7 12 -36 12
-66 0 -42 -7 -67 -29 -106 -16 -28 -34 -76 -41 -106 -16 -70 -49 -160 -59
-160 -13 0 -109 49 -115 59 -4 5 5 18 19 29 32 25 32 49 0 92 -31 42 -45 90
-45 152 0 39 4 50 27 68 20 15 36 20 55 16 16 -3 40 -9 56 -12 21 -4 33 0 51
20 27 28 50 33 69 14z m-683 -1130 c24 -11 26 -16 20 -47 -11 -57 -43 -111
-66 -111 -20 0 -79 26 -79 36 0 7 40 85 58 112 16 25 30 27 67 10z" id="node1" class="node"></path>
<path d="M1335 1839 c-146 -41 -145 -41 -145 -79 0 -34 14 -40 70 -30 36 7 49
5 68 -11 22 -17 27 -17 53 -4 15 8 35 15 44 15 21 0 75 53 75 74 0 42 -81 59
-165 35z" id="node2" class="node"></path>
</g>
<g transform="translate(0.000000,300.000000) scale(0.100000,-0.100000)" fill="#A5A5A5" stroke="none">



</g>
</svg>